<?xml version="1.0" encoding="UTF-8"?>
<svg xmlns="http://www.w3.org/2000/svg" width="50" height="50" viewBox="0 0 50 50" shape-rendering="crispEdges">
  <rect x="22" y="3" width="1" height="1" fill="#3fbf56" fill-opacity="0.773"/>
  <rect x="23" y="3" width="1" height="1" fill="#40c057"/>
  <rect x="24" y="3" width="1" height="1" fill="#40c057"/>
  <rect x="25" y="3" width="1" height="1" fill="#3fbf57" fill-opacity="0.976"/>
  <rect x="26" y="3" width="1" height="1" fill="#3fc056" fill-opacity="0.737"/>
  <rect x="27" y="3" width="1" height="1" fill="#41bd58" fill-opacity="0.169"/>
  <rect x="22" y="4" width="1" height="1" fill="#40c057"/>
  <rect x="23" y="4" width="1" height="1" fill="#40c057"/>
  <rect x="24" y="4" width="1" height="1" fill="#40c057"/>
  <rect x="25" y="4" width="1" height="1" fill="#40c057"/>
  <rect x="26" y="4" width="1" height="1" fill="#40c057"/>
  <rect x="27" y="4" width="1" height="1" fill="#40bf56" fill-opacity="0.933"/>
  <rect x="28" y="4" width="1" height="1" fill="#41bd56" fill-opacity="0.184"/>
  <rect x="22" y="5" width="1" height="1" fill="#40c057"/>
  <rect x="23" y="5" width="1" height="1" fill="#40c057"/>
  <rect x="25" y="5" width="1" height="1" fill="#45b95c" fill-opacity="0.043"/>
  <rect x="26" y="5" width="1" height="1" fill="#40c057" fill-opacity="0.667"/>
  <rect x="27" y="5" width="1" height="1" fill="#40c057"/>
  <rect x="28" y="5" width="1" height="1" fill="#3fbf56" fill-opacity="0.851"/>
  <rect x="29" y="5" width="1" height="1" fill="#38c655" fill-opacity="0.035"/>
  <rect x="22" y="6" width="1" height="1" fill="#40c057"/>
  <rect x="23" y="6" width="1" height="1" fill="#40c057"/>
  <rect x="26" y="6" width="1" height="1" fill="#45b95c" fill-opacity="0.043"/>
  <rect x="27" y="6" width="1" height="1" fill="#40c056" fill-opacity="0.843"/>
  <rect x="28" y="6" width="1" height="1" fill="#40c057"/>
  <rect x="29" y="6" width="1" height="1" fill="#3fbf56" fill-opacity="0.486"/>
  <rect x="22" y="7" width="1" height="1" fill="#40c057"/>
  <rect x="23" y="7" width="1" height="1" fill="#40c057"/>
  <rect x="27" y="7" width="1" height="1" fill="#41c158" fill-opacity="0.259"/>
  <rect x="28" y="7" width="1" height="1" fill="#40c057"/>
  <rect x="29" y="7" width="1" height="1" fill="#3fbf57" fill-opacity="0.929"/>
  <rect x="30" y="7" width="1" height="1" fill="#38c655" fill-opacity="0.035"/>
  <rect x="22" y="8" width="1" height="1" fill="#40c057"/>
  <rect x="23" y="8" width="1" height="1" fill="#40c057"/>
  <rect x="28" y="8" width="1" height="1" fill="#3fc057" fill-opacity="0.816"/>
  <rect x="29" y="8" width="1" height="1" fill="#40c057"/>
  <rect x="30" y="8" width="1" height="1" fill="#40c157" fill-opacity="0.341"/>
  <rect x="22" y="9" width="1" height="1" fill="#40c057"/>
  <rect x="23" y="9" width="1" height="1" fill="#40c057"/>
  <rect x="28" y="9" width="1" height="1" fill="#40c056" fill-opacity="0.416"/>
  <rect x="29" y="9" width="1" height="1" fill="#40c057"/>
  <rect x="30" y="9" width="1" height="1" fill="#40c056" fill-opacity="0.635"/>
  <rect x="22" y="10" width="1" height="1" fill="#40c057"/>
  <rect x="23" y="10" width="1" height="1" fill="#40c057"/>
  <rect x="28" y="10" width="1" height="1" fill="#41bd58" fill-opacity="0.169"/>
  <rect x="29" y="10" width="1" height="1" fill="#40c057"/>
  <rect x="30" y="10" width="1" height="1" fill="#3fbf56" fill-opacity="0.851"/>
  <rect x="21" y="11" width="1" height="1" fill="#3fbf3f" fill-opacity="0.016"/>
  <rect x="22" y="11" width="1" height="1" fill="#40c057"/>
  <rect x="23" y="11" width="1" height="1" fill="#40c057"/>
  <rect x="28" y="11" width="1" height="1" fill="#45b95c" fill-opacity="0.043"/>
  <rect x="29" y="11" width="1" height="1" fill="#40c057"/>
  <rect x="30" y="11" width="1" height="1" fill="#3fc056" fill-opacity="0.957"/>
  <rect x="21" y="12" width="1" height="1" fill="#3fbf57" fill-opacity="0.376"/>
  <rect x="22" y="12" width="1" height="1" fill="#40c057"/>
  <rect x="23" y="12" width="1" height="1" fill="#3fc057" fill-opacity="0.847"/>
  <rect x="28" y="12" width="1" height="1" fill="#46c655" fill-opacity="0.071"/>
  <rect x="29" y="12" width="1" height="1" fill="#40c057"/>
  <rect x="30" y="12" width="1" height="1" fill="#3fc057" fill-opacity="0.941"/>
  <rect x="20" y="13" width="1" height="1" fill="#3fbf3f" fill-opacity="0.016"/>
  <rect x="21" y="13" width="1" height="1" fill="#40c057" fill-opacity="0.859"/>
  <rect x="22" y="13" width="1" height="1" fill="#40c057"/>
  <rect x="23" y="13" width="1" height="1" fill="#3fbf57" fill-opacity="0.376"/>
  <rect x="28" y="13" width="1" height="1" fill="#3fbf56" fill-opacity="0.22"/>
  <rect x="29" y="13" width="1" height="1" fill="#40c057"/>
  <rect x="30" y="13" width="1" height="1" fill="#3fc057" fill-opacity="0.816"/>
  <rect x="20" y="14" width="1" height="1" fill="#3fbf57" fill-opacity="0.376"/>
  <rect x="21" y="14" width="1" height="1" fill="#40c057"/>
  <rect x="22" y="14" width="1" height="1" fill="#3fc056" fill-opacity="0.863"/>
  <rect x="23" y="14" width="1" height="1" fill="#3fbf3f" fill-opacity="0.016"/>
  <rect x="28" y="14" width="1" height="1" fill="#40c057" fill-opacity="0.447"/>
  <rect x="29" y="14" width="1" height="1" fill="#40c057"/>
  <rect x="30" y="14" width="1" height="1" fill="#40c057" fill-opacity="0.604"/>
  <rect x="19" y="15" width="1" height="1" fill="#3fbf3f" fill-opacity="0.016"/>
  <rect x="20" y="15" width="1" height="1" fill="#40c057" fill-opacity="0.859"/>
  <rect x="21" y="15" width="1" height="1" fill="#40c057"/>
  <rect x="22" y="15" width="1" height="1" fill="#3fbf57" fill-opacity="0.376"/>
  <rect x="28" y="15" width="1" height="1" fill="#3fc056" fill-opacity="0.69"/>
  <rect x="29" y="15" width="1" height="1" fill="#40c057"/>
  <rect x="30" y="15" width="1" height="1" fill="#40c155" fill-opacity="0.373"/>
  <rect x="19" y="16" width="1" height="1" fill="#3fbf57" fill-opacity="0.376"/>
  <rect x="20" y="16" width="1" height="1" fill="#40c057"/>
  <rect x="21" y="16" width="1" height="1" fill="#3fc056" fill-opacity="0.863"/>
  <rect x="22" y="16" width="1" height="1" fill="#3fbf3f" fill-opacity="0.016"/>
  <rect x="27" y="16" width="1" height="1" fill="#48b648" fill-opacity="0.027"/>
  <rect x="28" y="16" width="1" height="1" fill="#40bf57" fill-opacity="0.949"/>
  <rect x="29" y="16" width="1" height="1" fill="#40bf57" fill-opacity="0.996"/>
  <rect x="30" y="16" width="1" height="1" fill="#44c458" fill-opacity="0.102"/>
  <rect x="18" y="17" width="1" height="1" fill="#55aa55" fill-opacity="0.012"/>
  <rect x="19" y="17" width="1" height="1" fill="#3fbf56" fill-opacity="0.851"/>
  <rect x="20" y="17" width="1" height="1" fill="#40c057"/>
  <rect x="21" y="17" width="1" height="1" fill="#3fbf57" fill-opacity="0.376"/>
  <rect x="27" y="17" width="1" height="1" fill="#40be56" fill-opacity="0.278"/>
  <rect x="28" y="17" width="1" height="1" fill="#40c057"/>
  <rect x="29" y="17" width="1" height="1" fill="#3fbf57" fill-opacity="0.804"/>
  <rect x="18" y="18" width="1" height="1" fill="#3fbf57" fill-opacity="0.376"/>
  <rect x="19" y="18" width="1" height="1" fill="#40c057"/>
  <rect x="20" y="18" width="1" height="1" fill="#3fc056" fill-opacity="0.863"/>
  <rect x="21" y="18" width="1" height="1" fill="#3fbf3f" fill-opacity="0.016"/>
  <rect x="27" y="18" width="1" height="1" fill="#3fbf56" fill-opacity="0.58"/>
  <rect x="28" y="18" width="1" height="1" fill="#40c057"/>
  <rect x="29" y="18" width="1" height="1" fill="#3fbf56" fill-opacity="0.518"/>
  <rect x="2" y="19" width="1" height="1" fill="#40c057" fill-opacity="0.765"/>
  <rect x="3" y="19" width="1" height="1" fill="#40c057"/>
  <rect x="4" y="19" width="1" height="1" fill="#40c057"/>
  <rect x="5" y="19" width="1" height="1" fill="#40c057"/>
  <rect x="6" y="19" width="1" height="1" fill="#40c057"/>
  <rect x="7" y="19" width="1" height="1" fill="#40c057"/>
  <rect x="8" y="19" width="1" height="1" fill="#40c057"/>
  <rect x="9" y="19" width="1" height="1" fill="#40c057"/>
  <rect x="10" y="19" width="1" height="1" fill="#40c057"/>
  <rect x="11" y="19" width="1" height="1" fill="#40c057"/>
  <rect x="12" y="19" width="1" height="1" fill="#40c057"/>
  <rect x="13" y="19" width="1" height="1" fill="#40c057"/>
  <rect x="14" y="19" width="1" height="1" fill="#40c057"/>
  <rect x="15" y="19" width="1" height="1" fill="#40c057"/>
  <rect x="16" y="19" width="1" height="1" fill="#40c057" fill-opacity="0.765"/>
  <rect x="17" y="19" width="1" height="1" fill="#3fbf3f" fill-opacity="0.016"/>
  <rect x="18" y="19" width="1" height="1" fill="#40c057" fill-opacity="0.859"/>
  <rect x="19" y="19" width="1" height="1" fill="#40c057"/>
  <rect x="20" y="19" width="1" height="1" fill="#3fbf57" fill-opacity="0.376"/>
  <rect x="27" y="19" width="1" height="1" fill="#40bf57" fill-opacity="0.871"/>
  <rect x="28" y="19" width="1" height="1" fill="#40c057"/>
  <rect x="29" y="19" width="1" height="1" fill="#40c057"/>
  <rect x="30" y="19" width="1" height="1" fill="#40c057"/>
  <rect x="31" y="19" width="1" height="1" fill="#40c057"/>
  <rect x="32" y="19" width="1" height="1" fill="#40c057"/>
  <rect x="33" y="19" width="1" height="1" fill="#40c057"/>
  <rect x="34" y="19" width="1" height="1" fill="#40c057"/>
  <rect x="35" y="19" width="1" height="1" fill="#40c057"/>
  <rect x="36" y="19" width="1" height="1" fill="#40c057"/>
  <rect x="37" y="19" width="1" height="1" fill="#40c057"/>
  <rect x="38" y="19" width="1" height="1" fill="#40c057"/>
  <rect x="39" y="19" width="1" height="1" fill="#40c057"/>
  <rect x="40" y="19" width="1" height="1" fill="#40c057"/>
  <rect x="41" y="19" width="1" height="1" fill="#40c057"/>
  <rect x="42" y="19" width="1" height="1" fill="#40c057"/>
  <rect x="43" y="19" width="1" height="1" fill="#40c057"/>
  <rect x="44" y="19" width="1" height="1" fill="#40bf57" fill-opacity="0.949"/>
  <rect x="45" y="19" width="1" height="1" fill="#40bf56" fill-opacity="0.682"/>
  <rect x="46" y="19" width="1" height="1" fill="#41bd55" fill-opacity="0.153"/>
  <rect x="2" y="20" width="1" height="1" fill="#40c057" fill-opacity="0.953"/>
  <rect x="3" y="20" width="1" height="1" fill="#40c057"/>
  <rect x="4" y="20" width="1" height="1" fill="#40c057"/>
  <rect x="5" y="20" width="1" height="1" fill="#40c057"/>
  <rect x="6" y="20" width="1" height="1" fill="#40c057"/>
  <rect x="7" y="20" width="1" height="1" fill="#40c057"/>
  <rect x="8" y="20" width="1" height="1" fill="#40c057"/>
  <rect x="9" y="20" width="1" height="1" fill="#40c057"/>
  <rect x="10" y="20" width="1" height="1" fill="#40c057"/>
  <rect x="11" y="20" width="1" height="1" fill="#40c057"/>
  <rect x="12" y="20" width="1" height="1" fill="#40c057"/>
  <rect x="13" y="20" width="1" height="1" fill="#40c057"/>
  <rect x="14" y="20" width="1" height="1" fill="#40c057"/>
  <rect x="15" y="20" width="1" height="1" fill="#40c057"/>
  <rect x="16" y="20" width="1" height="1" fill="#40c057"/>
  <rect x="17" y="20" width="1" height="1" fill="#3fbf57" fill-opacity="0.376"/>
  <rect x="18" y="20" width="1" height="1" fill="#40c057"/>
  <rect x="19" y="20" width="1" height="1" fill="#40c057" fill-opacity="0.859"/>
  <rect x="20" y="20" width="1" height="1" fill="#3fbf3f" fill-opacity="0.016"/>
  <rect x="27" y="20" width="1" height="1" fill="#40bf56" fill-opacity="0.761"/>
  <rect x="28" y="20" width="1" height="1" fill="#40c057"/>
  <rect x="29" y="20" width="1" height="1" fill="#40c057"/>
  <rect x="30" y="20" width="1" height="1" fill="#40c057"/>
  <rect x="31" y="20" width="1" height="1" fill="#40c057"/>
  <rect x="32" y="20" width="1" height="1" fill="#40c057"/>
  <rect x="33" y="20" width="1" height="1" fill="#40c057"/>
  <rect x="34" y="20" width="1" height="1" fill="#40c057"/>
  <rect x="35" y="20" width="1" height="1" fill="#40c057"/>
  <rect x="36" y="20" width="1" height="1" fill="#40c057"/>
  <rect x="37" y="20" width="1" height="1" fill="#40c057"/>
  <rect x="38" y="20" width="1" height="1" fill="#40c057"/>
  <rect x="39" y="20" width="1" height="1" fill="#40c057"/>
  <rect x="40" y="20" width="1" height="1" fill="#40c057"/>
  <rect x="41" y="20" width="1" height="1" fill="#40c057"/>
  <rect x="42" y="20" width="1" height="1" fill="#40c057"/>
  <rect x="43" y="20" width="1" height="1" fill="#40c057"/>
  <rect x="44" y="20" width="1" height="1" fill="#40c057"/>
  <rect x="45" y="20" width="1" height="1" fill="#40c057"/>
  <rect x="46" y="20" width="1" height="1" fill="#3fbf57" fill-opacity="0.929"/>
  <rect x="47" y="20" width="1" height="1" fill="#3fbf5b" fill-opacity="0.11"/>
  <rect x="2" y="21" width="1" height="1" fill="#40c057" fill-opacity="0.827"/>
  <rect x="3" y="21" width="1" height="1" fill="#40c057"/>
  <rect x="4" y="21" width="1" height="1" fill="#3fbf55" fill-opacity="0.188"/>
  <rect x="15" y="21" width="1" height="1" fill="#40c057"/>
  <rect x="16" y="21" width="1" height="1" fill="#40c057"/>
  <rect x="17" y="21" width="1" height="1" fill="#40c057" fill-opacity="0.859"/>
  <rect x="18" y="21" width="1" height="1" fill="#40c057"/>
  <rect x="19" y="21" width="1" height="1" fill="#3fbf57" fill-opacity="0.376"/>
  <rect x="44" y="21" width="1" height="1" fill="#3fbf5b" fill-opacity="0.11"/>
  <rect x="45" y="21" width="1" height="1" fill="#40bf56" fill-opacity="0.714"/>
  <rect x="46" y="21" width="1" height="1" fill="#40c057"/>
  <rect x="47" y="21" width="1" height="1" fill="#40c057" fill-opacity="0.667"/>
  <rect x="2" y="22" width="1" height="1" fill="#40c056" fill-opacity="0.702"/>
  <rect x="3" y="22" width="1" height="1" fill="#40c057"/>
  <rect x="4" y="22" width="1" height="1" fill="#3fbf56" fill-opacity="0.314"/>
  <rect x="15" y="22" width="1" height="1" fill="#40c057"/>
  <rect x="16" y="22" width="1" height="1" fill="#40c057"/>
  <rect x="17" y="22" width="1" height="1" fill="#40c057"/>
  <rect x="18" y="22" width="1" height="1" fill="#40c057" fill-opacity="0.859"/>
  <rect x="19" y="22" width="1" height="1" fill="#3fbf3f" fill-opacity="0.016"/>
  <rect x="45" y="22" width="1" height="1" fill="#3dc157" fill-opacity="0.114"/>
  <rect x="46" y="22" width="1" height="1" fill="#40c057"/>
  <rect x="47" y="22" width="1" height="1" fill="#3fbf56" fill-opacity="0.945"/>
  <rect x="2" y="23" width="1" height="1" fill="#40c056" fill-opacity="0.576"/>
  <rect x="3" y="23" width="1" height="1" fill="#40c057"/>
  <rect x="4" y="23" width="1" height="1" fill="#3fbf56" fill-opacity="0.439"/>
  <rect x="15" y="23" width="1" height="1" fill="#40c057"/>
  <rect x="16" y="23" width="1" height="1" fill="#40c057"/>
  <rect x="17" y="23" width="1" height="1" fill="#40bf57" fill-opacity="0.965"/>
  <rect x="18" y="23" width="1" height="1" fill="#3fbf56" fill-opacity="0.314"/>
  <rect x="45" y="23" width="1" height="1" fill="#3dc157" fill-opacity="0.114"/>
  <rect x="46" y="23" width="1" height="1" fill="#40c057"/>
  <rect x="47" y="23" width="1" height="1" fill="#3fbf57" fill-opacity="0.929"/>
  <rect x="2" y="24" width="1" height="1" fill="#3fbf57" fill-opacity="0.455"/>
  <rect x="3" y="24" width="1" height="1" fill="#40c057"/>
  <rect x="4" y="24" width="1" height="1" fill="#40c057" fill-opacity="0.561"/>
  <rect x="15" y="24" width="1" height="1" fill="#40c057"/>
  <rect x="16" y="24" width="1" height="1" fill="#40c057"/>
  <rect x="44" y="24" width="1" height="1" fill="#3dc157" fill-opacity="0.114"/>
  <rect x="45" y="24" width="1" height="1" fill="#40c056" fill-opacity="0.718"/>
  <rect x="46" y="24" width="1" height="1" fill="#40c057"/>
  <rect x="47" y="24" width="1" height="1" fill="#40c057" fill-opacity="0.667"/>
  <rect x="2" y="25" width="1" height="1" fill="#3fbf58" fill-opacity="0.329"/>
  <rect x="3" y="25" width="1" height="1" fill="#40c057"/>
  <rect x="4" y="25" width="1" height="1" fill="#40c057" fill-opacity="0.686"/>
  <rect x="15" y="25" width="1" height="1" fill="#40c057"/>
  <rect x="16" y="25" width="1" height="1" fill="#40c057"/>
  <rect x="42" y="25" width="1" height="1" fill="#3fbf56" fill-opacity="0.773"/>
  <rect x="43" y="25" width="1" height="1" fill="#40c057"/>
  <rect x="44" y="25" width="1" height="1" fill="#40c057"/>
  <rect x="45" y="25" width="1" height="1" fill="#40c057"/>
  <rect x="46" y="25" width="1" height="1" fill="#40bf56" fill-opacity="0.933"/>
  <rect x="47" y="25" width="1" height="1" fill="#3fbf55" fill-opacity="0.141"/>
  <rect x="2" y="26" width="1" height="1" fill="#3fbf58" fill-opacity="0.204"/>
  <rect x="3" y="26" width="1" height="1" fill="#40c057"/>
  <rect x="4" y="26" width="1" height="1" fill="#40c057" fill-opacity="0.812"/>
  <rect x="15" y="26" width="1" height="1" fill="#40c057"/>
  <rect x="16" y="26" width="1" height="1" fill="#40c057"/>
  <rect x="42" y="26" width="1" height="1" fill="#3fc057" fill-opacity="0.769"/>
  <rect x="43" y="26" width="1" height="1" fill="#40c057"/>
  <rect x="44" y="26" width="1" height="1" fill="#40c057"/>
  <rect x="45" y="26" width="1" height="1" fill="#40c057"/>
  <rect x="46" y="26" width="1" height="1" fill="#41c157" fill-opacity="0.275"/>
  <rect x="2" y="27" width="1" height="1" fill="#3fbf59" fill-opacity="0.078"/>
  <rect x="3" y="27" width="1" height="1" fill="#40c057"/>
  <rect x="4" y="27" width="1" height="1" fill="#40c057" fill-opacity="0.937"/>
  <rect x="15" y="27" width="1" height="1" fill="#40c057"/>
  <rect x="16" y="27" width="1" height="1" fill="#40c057"/>
  <rect x="43" y="27" width="1" height="1" fill="#3fbf5b" fill-opacity="0.11"/>
  <rect x="44" y="27" width="1" height="1" fill="#40bf56" fill-opacity="0.714"/>
  <rect x="45" y="27" width="1" height="1" fill="#40c057"/>
  <rect x="46" y="27" width="1" height="1" fill="#40c057" fill-opacity="0.655"/>
  <rect x="3" y="28" width="1" height="1" fill="#40c057" fill-opacity="0.953"/>
  <rect x="4" y="28" width="1" height="1" fill="#40c057"/>
  <rect x="5" y="28" width="1" height="1" fill="#3fbf4f" fill-opacity="0.063"/>
  <rect x="15" y="28" width="1" height="1" fill="#40c057"/>
  <rect x="16" y="28" width="1" height="1" fill="#40c057"/>
  <rect x="44" y="28" width="1" height="1" fill="#3dc157" fill-opacity="0.114"/>
  <rect x="45" y="28" width="1" height="1" fill="#40c057"/>
  <rect x="46" y="28" width="1" height="1" fill="#3fc056" fill-opacity="0.91"/>
  <rect x="3" y="29" width="1" height="1" fill="#40c057" fill-opacity="0.827"/>
  <rect x="4" y="29" width="1" height="1" fill="#40c057"/>
  <rect x="5" y="29" width="1" height="1" fill="#3fbf55" fill-opacity="0.188"/>
  <rect x="15" y="29" width="1" height="1" fill="#40c057"/>
  <rect x="16" y="29" width="1" height="1" fill="#40c057"/>
  <rect x="44" y="29" width="1" height="1" fill="#3dc157" fill-opacity="0.114"/>
  <rect x="45" y="29" width="1" height="1" fill="#40c057"/>
  <rect x="46" y="29" width="1" height="1" fill="#3fbf57" fill-opacity="0.929"/>
  <rect x="3" y="30" width="1" height="1" fill="#40c056" fill-opacity="0.702"/>
  <rect x="4" y="30" width="1" height="1" fill="#40c057"/>
  <rect x="5" y="30" width="1" height="1" fill="#3fbf56" fill-opacity="0.314"/>
  <rect x="15" y="30" width="1" height="1" fill="#40c057"/>
  <rect x="16" y="30" width="1" height="1" fill="#40c057"/>
  <rect x="43" y="30" width="1" height="1" fill="#3dc157" fill-opacity="0.114"/>
  <rect x="44" y="30" width="1" height="1" fill="#40c056" fill-opacity="0.718"/>
  <rect x="45" y="30" width="1" height="1" fill="#40c057"/>
  <rect x="46" y="30" width="1" height="1" fill="#40c057" fill-opacity="0.667"/>
  <rect x="3" y="31" width="1" height="1" fill="#40c056" fill-opacity="0.576"/>
  <rect x="4" y="31" width="1" height="1" fill="#40c057"/>
  <rect x="5" y="31" width="1" height="1" fill="#3fbf56" fill-opacity="0.439"/>
  <rect x="15" y="31" width="1" height="1" fill="#40c057"/>
  <rect x="16" y="31" width="1" height="1" fill="#40c057"/>
  <rect x="41" y="31" width="1" height="1" fill="#3fbf56" fill-opacity="0.773"/>
  <rect x="42" y="31" width="1" height="1" fill="#40c057"/>
  <rect x="43" y="31" width="1" height="1" fill="#40c057"/>
  <rect x="44" y="31" width="1" height="1" fill="#40c057"/>
  <rect x="45" y="31" width="1" height="1" fill="#40bf56" fill-opacity="0.933"/>
  <rect x="46" y="31" width="1" height="1" fill="#3fbf55" fill-opacity="0.141"/>
  <rect x="3" y="32" width="1" height="1" fill="#3fbf57" fill-opacity="0.455"/>
  <rect x="4" y="32" width="1" height="1" fill="#40c057"/>
  <rect x="5" y="32" width="1" height="1" fill="#40c057" fill-opacity="0.561"/>
  <rect x="15" y="32" width="1" height="1" fill="#40c057"/>
  <rect x="16" y="32" width="1" height="1" fill="#40c057"/>
  <rect x="41" y="32" width="1" height="1" fill="#3fc057" fill-opacity="0.769"/>
  <rect x="42" y="32" width="1" height="1" fill="#40c057"/>
  <rect x="43" y="32" width="1" height="1" fill="#40c057"/>
  <rect x="44" y="32" width="1" height="1" fill="#40c057"/>
  <rect x="45" y="32" width="1" height="1" fill="#41c157" fill-opacity="0.275"/>
  <rect x="3" y="33" width="1" height="1" fill="#3fbf58" fill-opacity="0.329"/>
  <rect x="4" y="33" width="1" height="1" fill="#40c057"/>
  <rect x="5" y="33" width="1" height="1" fill="#40c057" fill-opacity="0.686"/>
  <rect x="15" y="33" width="1" height="1" fill="#40c057"/>
  <rect x="16" y="33" width="1" height="1" fill="#40c057"/>
  <rect x="42" y="33" width="1" height="1" fill="#3fbf5b" fill-opacity="0.11"/>
  <rect x="43" y="33" width="1" height="1" fill="#40bf56" fill-opacity="0.714"/>
  <rect x="44" y="33" width="1" height="1" fill="#40c057"/>
  <rect x="45" y="33" width="1" height="1" fill="#40c057" fill-opacity="0.655"/>
  <rect x="3" y="34" width="1" height="1" fill="#3fbf58" fill-opacity="0.204"/>
  <rect x="4" y="34" width="1" height="1" fill="#40c057"/>
  <rect x="5" y="34" width="1" height="1" fill="#40c057" fill-opacity="0.812"/>
  <rect x="15" y="34" width="1" height="1" fill="#40c057"/>
  <rect x="16" y="34" width="1" height="1" fill="#40c057"/>
  <rect x="43" y="34" width="1" height="1" fill="#3dc157" fill-opacity="0.114"/>
  <rect x="44" y="34" width="1" height="1" fill="#40c057"/>
  <rect x="45" y="34" width="1" height="1" fill="#3fc056" fill-opacity="0.91"/>
  <rect x="3" y="35" width="1" height="1" fill="#3fbf59" fill-opacity="0.078"/>
  <rect x="4" y="35" width="1" height="1" fill="#40c057"/>
  <rect x="5" y="35" width="1" height="1" fill="#40c057" fill-opacity="0.937"/>
  <rect x="15" y="35" width="1" height="1" fill="#40c057"/>
  <rect x="16" y="35" width="1" height="1" fill="#40c057"/>
  <rect x="43" y="35" width="1" height="1" fill="#3dc157" fill-opacity="0.114"/>
  <rect x="44" y="35" width="1" height="1" fill="#40c057"/>
  <rect x="45" y="35" width="1" height="1" fill="#40bf57" fill-opacity="0.918"/>
  <rect x="4" y="36" width="1" height="1" fill="#40c057" fill-opacity="0.953"/>
  <rect x="5" y="36" width="1" height="1" fill="#40c057"/>
  <rect x="6" y="36" width="1" height="1" fill="#3fbf4f" fill-opacity="0.063"/>
  <rect x="15" y="36" width="1" height="1" fill="#40c057"/>
  <rect x="16" y="36" width="1" height="1" fill="#40c057"/>
  <rect x="42" y="36" width="1" height="1" fill="#3dc157" fill-opacity="0.114"/>
  <rect x="43" y="36" width="1" height="1" fill="#40c056" fill-opacity="0.718"/>
  <rect x="44" y="36" width="1" height="1" fill="#40c057"/>
  <rect x="45" y="36" width="1" height="1" fill="#40c057" fill-opacity="0.655"/>
  <rect x="4" y="37" width="1" height="1" fill="#40c057" fill-opacity="0.827"/>
  <rect x="5" y="37" width="1" height="1" fill="#40c057"/>
  <rect x="6" y="37" width="1" height="1" fill="#3fbf55" fill-opacity="0.188"/>
  <rect x="15" y="37" width="1" height="1" fill="#40c057"/>
  <rect x="16" y="37" width="1" height="1" fill="#40c057"/>
  <rect x="39" y="37" width="1" height="1" fill="#3fbf56" fill-opacity="0.773"/>
  <rect x="40" y="37" width="1" height="1" fill="#40c057"/>
  <rect x="41" y="37" width="1" height="1" fill="#40c057"/>
  <rect x="42" y="37" width="1" height="1" fill="#40c057"/>
  <rect x="43" y="37" width="1" height="1" fill="#40c057"/>
  <rect x="44" y="37" width="1" height="1" fill="#3fbf56" fill-opacity="0.914"/>
  <rect x="45" y="37" width="1" height="1" fill="#41bd57" fill-opacity="0.137"/>
  <rect x="4" y="38" width="1" height="1" fill="#40c056" fill-opacity="0.702"/>
  <rect x="5" y="38" width="1" height="1" fill="#40c057"/>
  <rect x="6" y="38" width="1" height="1" fill="#3fbf56" fill-opacity="0.314"/>
  <rect x="10" y="38" width="1" height="1" fill="#40c057" fill-opacity="0.525"/>
  <rect x="11" y="38" width="1" height="1" fill="#3fc056" fill-opacity="0.957"/>
  <rect x="12" y="38" width="1" height="1" fill="#3fbf56" fill-opacity="0.522"/>
  <rect x="15" y="38" width="1" height="1" fill="#40c057"/>
  <rect x="16" y="38" width="1" height="1" fill="#40c057"/>
  <rect x="39" y="38" width="1" height="1" fill="#3fc057" fill-opacity="0.769"/>
  <rect x="40" y="38" width="1" height="1" fill="#40c057"/>
  <rect x="41" y="38" width="1" height="1" fill="#40c057"/>
  <rect x="42" y="38" width="1" height="1" fill="#40c057"/>
  <rect x="43" y="38" width="1" height="1" fill="#40c057" fill-opacity="0.733"/>
  <rect x="44" y="38" width="1" height="1" fill="#41bd57" fill-opacity="0.137"/>
  <rect x="4" y="39" width="1" height="1" fill="#40c056" fill-opacity="0.576"/>
  <rect x="5" y="39" width="1" height="1" fill="#40c057"/>
  <rect x="6" y="39" width="1" height="1" fill="#3fbf56" fill-opacity="0.439"/>
  <rect x="10" y="39" width="1" height="1" fill="#40c057" fill-opacity="0.953"/>
  <rect x="11" y="39" width="1" height="1" fill="#40c057"/>
  <rect x="12" y="39" width="1" height="1" fill="#40bf57" fill-opacity="0.949"/>
  <rect x="15" y="39" width="1" height="1" fill="#40c057"/>
  <rect x="16" y="39" width="1" height="1" fill="#40c057"/>
  <rect x="40" y="39" width="1" height="1" fill="#3fbf5b" fill-opacity="0.11"/>
  <rect x="41" y="39" width="1" height="1" fill="#40bf56" fill-opacity="0.714"/>
  <rect x="42" y="39" width="1" height="1" fill="#40c057"/>
  <rect x="43" y="39" width="1" height="1" fill="#40c057" fill-opacity="0.655"/>
  <rect x="4" y="40" width="1" height="1" fill="#3fbf57" fill-opacity="0.455"/>
  <rect x="5" y="40" width="1" height="1" fill="#40c057"/>
  <rect x="6" y="40" width="1" height="1" fill="#40c057" fill-opacity="0.561"/>
  <rect x="10" y="40" width="1" height="1" fill="#3fbf56" fill-opacity="0.522"/>
  <rect x="11" y="40" width="1" height="1" fill="#40c057" fill-opacity="0.953"/>
  <rect x="12" y="40" width="1" height="1" fill="#3fbf56" fill-opacity="0.518"/>
  <rect x="15" y="40" width="1" height="1" fill="#40c057"/>
  <rect x="16" y="40" width="1" height="1" fill="#40c057"/>
  <rect x="41" y="40" width="1" height="1" fill="#3dc157" fill-opacity="0.114"/>
  <rect x="42" y="40" width="1" height="1" fill="#40c057"/>
  <rect x="43" y="40" width="1" height="1" fill="#40c056" fill-opacity="0.922"/>
  <rect x="4" y="41" width="1" height="1" fill="#3fbf58" fill-opacity="0.329"/>
  <rect x="5" y="41" width="1" height="1" fill="#40c057"/>
  <rect x="6" y="41" width="1" height="1" fill="#40c057" fill-opacity="0.686"/>
  <rect x="15" y="41" width="1" height="1" fill="#40c057"/>
  <rect x="16" y="41" width="1" height="1" fill="#40c057"/>
  <rect x="17" y="41" width="1" height="1" fill="#40c057"/>
  <rect x="18" y="41" width="1" height="1" fill="#40c057"/>
  <rect x="19" y="41" width="1" height="1" fill="#40c057" fill-opacity="0.765"/>
  <rect x="41" y="41" width="1" height="1" fill="#3dc157" fill-opacity="0.114"/>
  <rect x="42" y="41" width="1" height="1" fill="#40c057"/>
  <rect x="43" y="41" width="1" height="1" fill="#3fc057" fill-opacity="0.941"/>
  <rect x="4" y="42" width="1" height="1" fill="#3fbf58" fill-opacity="0.204"/>
  <rect x="5" y="42" width="1" height="1" fill="#40c057"/>
  <rect x="6" y="42" width="1" height="1" fill="#40c057" fill-opacity="0.812"/>
  <rect x="15" y="42" width="1" height="1" fill="#40c057"/>
  <rect x="16" y="42" width="1" height="1" fill="#40c057"/>
  <rect x="17" y="42" width="1" height="1" fill="#40c057"/>
  <rect x="18" y="42" width="1" height="1" fill="#40c057"/>
  <rect x="19" y="42" width="1" height="1" fill="#40c057"/>
  <rect x="20" y="42" width="1" height="1" fill="#3fbf55" fill-opacity="0.235"/>
  <rect x="40" y="42" width="1" height="1" fill="#3dc157" fill-opacity="0.114"/>
  <rect x="41" y="42" width="1" height="1" fill="#40c056" fill-opacity="0.718"/>
  <rect x="42" y="42" width="1" height="1" fill="#40c057"/>
  <rect x="43" y="42" width="1" height="1" fill="#3fc057" fill-opacity="0.675"/>
  <rect x="4" y="43" width="1" height="1" fill="#3fbf59" fill-opacity="0.078"/>
  <rect x="5" y="43" width="1" height="1" fill="#40c057"/>
  <rect x="6" y="43" width="1" height="1" fill="#40c057"/>
  <rect x="7" y="43" width="1" height="1" fill="#40c057"/>
  <rect x="8" y="43" width="1" height="1" fill="#40c057"/>
  <rect x="9" y="43" width="1" height="1" fill="#40c057"/>
  <rect x="10" y="43" width="1" height="1" fill="#40c057"/>
  <rect x="11" y="43" width="1" height="1" fill="#40c057"/>
  <rect x="12" y="43" width="1" height="1" fill="#40c057"/>
  <rect x="13" y="43" width="1" height="1" fill="#40c057"/>
  <rect x="14" y="43" width="1" height="1" fill="#40c057"/>
  <rect x="15" y="43" width="1" height="1" fill="#40c057"/>
  <rect x="16" y="43" width="1" height="1" fill="#40c057"/>
  <rect x="18" y="43" width="1" height="1" fill="#3fbf56" fill-opacity="0.565"/>
  <rect x="19" y="43" width="1" height="1" fill="#40c057"/>
  <rect x="20" y="43" width="1" height="1" fill="#40c057"/>
  <rect x="21" y="43" width="1" height="1" fill="#40c057"/>
  <rect x="22" y="43" width="1" height="1" fill="#40c057"/>
  <rect x="23" y="43" width="1" height="1" fill="#40c057"/>
  <rect x="24" y="43" width="1" height="1" fill="#40c057"/>
  <rect x="25" y="43" width="1" height="1" fill="#40c057"/>
  <rect x="26" y="43" width="1" height="1" fill="#40c057"/>
  <rect x="27" y="43" width="1" height="1" fill="#40c057"/>
  <rect x="28" y="43" width="1" height="1" fill="#40c057"/>
  <rect x="29" y="43" width="1" height="1" fill="#40c057"/>
  <rect x="30" y="43" width="1" height="1" fill="#40c057"/>
  <rect x="31" y="43" width="1" height="1" fill="#40c057"/>
  <rect x="32" y="43" width="1" height="1" fill="#40c057"/>
  <rect x="33" y="43" width="1" height="1" fill="#40c057"/>
  <rect x="34" y="43" width="1" height="1" fill="#40c057"/>
  <rect x="35" y="43" width="1" height="1" fill="#40c057"/>
  <rect x="36" y="43" width="1" height="1" fill="#40c057"/>
  <rect x="37" y="43" width="1" height="1" fill="#40c057"/>
  <rect x="38" y="43" width="1" height="1" fill="#40c057"/>
  <rect x="39" y="43" width="1" height="1" fill="#40c057"/>
  <rect x="40" y="43" width="1" height="1" fill="#40c057"/>
  <rect x="41" y="43" width="1" height="1" fill="#40c057"/>
  <rect x="42" y="43" width="1" height="1" fill="#3fbf57" fill-opacity="0.929"/>
  <rect x="43" y="43" width="1" height="1" fill="#3ec059" fill-opacity="0.145"/>
  <rect x="5" y="44" width="1" height="1" fill="#40bf56" fill-opacity="0.729"/>
  <rect x="6" y="44" width="1" height="1" fill="#40c057"/>
  <rect x="7" y="44" width="1" height="1" fill="#40c057"/>
  <rect x="8" y="44" width="1" height="1" fill="#40c057"/>
  <rect x="9" y="44" width="1" height="1" fill="#40c057"/>
  <rect x="10" y="44" width="1" height="1" fill="#40c057"/>
  <rect x="11" y="44" width="1" height="1" fill="#40c057"/>
  <rect x="12" y="44" width="1" height="1" fill="#40c057"/>
  <rect x="13" y="44" width="1" height="1" fill="#40c057"/>
  <rect x="14" y="44" width="1" height="1" fill="#40c057"/>
  <rect x="15" y="44" width="1" height="1" fill="#40c057"/>
  <rect x="16" y="44" width="1" height="1" fill="#40bf56" fill-opacity="0.761"/>
  <rect x="18" y="44" width="1" height="1" fill="#33cc66" fill-opacity="0.02"/>
  <rect x="19" y="44" width="1" height="1" fill="#3fbf56" fill-opacity="0.553"/>
  <rect x="20" y="44" width="1" height="1" fill="#40bf57" fill-opacity="0.918"/>
  <rect x="21" y="44" width="1" height="1" fill="#40c057"/>
  <rect x="22" y="44" width="1" height="1" fill="#40c057"/>
  <rect x="23" y="44" width="1" height="1" fill="#40c057"/>
  <rect x="24" y="44" width="1" height="1" fill="#40c057"/>
  <rect x="25" y="44" width="1" height="1" fill="#40c057"/>
  <rect x="26" y="44" width="1" height="1" fill="#40c057"/>
  <rect x="27" y="44" width="1" height="1" fill="#40c057"/>
  <rect x="28" y="44" width="1" height="1" fill="#40c057"/>
  <rect x="29" y="44" width="1" height="1" fill="#40c057"/>
  <rect x="30" y="44" width="1" height="1" fill="#40c057"/>
  <rect x="31" y="44" width="1" height="1" fill="#40c057"/>
  <rect x="32" y="44" width="1" height="1" fill="#40c057"/>
  <rect x="33" y="44" width="1" height="1" fill="#40c057"/>
  <rect x="34" y="44" width="1" height="1" fill="#40c057"/>
  <rect x="35" y="44" width="1" height="1" fill="#40c057"/>
  <rect x="36" y="44" width="1" height="1" fill="#40c057"/>
  <rect x="37" y="44" width="1" height="1" fill="#40c057"/>
  <rect x="38" y="44" width="1" height="1" fill="#40c057"/>
  <rect x="39" y="44" width="1" height="1" fill="#40c057"/>
  <rect x="40" y="44" width="1" height="1" fill="#3fbf56" fill-opacity="0.945"/>
  <rect x="41" y="44" width="1" height="1" fill="#3fc057" fill-opacity="0.675"/>
  <rect x="42" y="44" width="1" height="1" fill="#3ec059" fill-opacity="0.145"/>
</svg>
